<svg width="511" height="511.832" xmlns="http://www.w3.org/2000/svg" shape-rendering="geometricPrecision" text-rendering="geometricPrecision" image-rendering="optimizeQuality" fill-rule="evenodd" clip-rule="evenodd">
 <g>
  <title>Layer 1</title>
  <path fill-rule="nonzero" d="m42,469.748l117.026,0l0,-104.027c0,-25.882 10.609,-49.45 27.679,-66.528l0.082,-0.081c17.077,-17.07 40.645,-27.679 66.527,-27.679c25.844,0 49.412,10.617 66.519,27.687l0.082,0.081c17.092,17.151 27.686,40.697 27.686,66.52l0,104.027l119.315,0l0,-215.739l-212.07,-201.858l-212.762,202.617l0,107.49l-0.084,107.49zm138.568,43.084l-152.231,0c-8.09,0 -15.428,-3.3 -20.732,-8.605c-5.305,-5.304 -8.605,-12.642 -8.605,-20.732l0,-237.884c0.059,-5.681 2.298,-11.346 6.733,-15.568l234.305,-223.128c8.236,-7.846 21.284,-7.927 29.616,0l232.514,221.323c4.782,3.957 7.832,9.931 7.832,16.614l0,238.643c0,7.964 -3.316,15.391 -8.642,20.717c-5.253,5.253 -12.591,8.62 -20.695,8.62l-154.604,0c-11.891,0 -21.542,-9.651 -21.542,-21.542l0,-125.569c0,-14.109 -5.739,-26.913 -14.978,-36.145l-0.081,-0.081c-9.231,-9.238 -22.036,-14.978 -36.144,-14.978c-14.087,0 -26.913,5.762 -36.189,15.015c-9.253,9.276 -15.014,22.102 -15.014,36.189l0,125.569c0,11.891 -9.652,21.542 -21.543,21.542z" id="svg_1" stroke-width="3"/>
  <path id="svg_2" d="m39.83498,253.41732l216.16502,-209.41732l223,212l1,214c0.83496,0.41731 -133.16503,4.41731 -133.16503,4.41731c0,0 -4,-112 -4.83497,-112.41731c0.83497,0.41732 -34.16503,-66.58268 -34.16503,-67.58268c0,-1 -90,-11 -90.83497,-11.41732c0.83497,0.41732 -40.16503,45.41732 -41.16503,47.41732c-1,2 -2,148 -2.83497,147.58268c0.83497,0.41731 -139.16502,0.41731 -140,0c0.83498,0.41731 6.83498,-224.58268 6.83498,-224.58268z" opacity="NaN" stroke="#000" fill="#000000"/>
 </g>

</svg>