<?xml version="1.0"?>
<svg width="512" height="456.549" xmlns="http://www.w3.org/2000/svg" xmlns:svg="http://www.w3.org/2000/svg" clip-rule="evenodd" fill-rule="evenodd">
 <g class="layer">
  <title>Layer 1</title>
  <path d="m463.04,117.28c-10.12,-26.73 -28.41,-47.53 -50.27,-60.58c-13.47,-8.04 -28.34,-13.12 -43.46,-14.8c-14.88,-1.66 -30.01,0 -44.28,5.4c-37.46,14.19 -50.6,41.92 -66.52,74.03c-3.42,6.89 -1.97,6.97 -5.9,0.08c-17.57,-30.87 -33.78,-63.68 -70.12,-75.72c-12.88,-4.26 -26.56,-5.41 -40.09,-3.85c-13.83,1.61 -27.55,6.03 -40.21,12.83c-25.06,13.49 -45.88,36.22 -55.38,64.92c-31.52,95.23 83.38,188.37 170.42,258.91c12.97,10.51 25.36,20.55 36.83,30.25c15.45,-13.28 32.36,-26.69 50,-40.68c87.82,-69.64 195.29,-154.87 158.98,-250.79zm-29.17,-95.84c29.48,17.59 54.09,45.53 67.66,81.35c46.93,123.97 -73.47,219.47 -171.87,297.49c-22.83,18.11 -44.41,35.23 -61.07,50.41c-7.63,7.48 -19.85,7.89 -27.97,0.71c-13.9,-12.32 -31.04,-26.2 -49.32,-41.01c-96.56,-78.26 -224.03,-181.58 -183.61,-303.69c12.95,-39.15 41.14,-70.04 75.03,-88.27c17.22,-9.25 35.98,-15.28 55,-17.49c19.34,-2.23 38.99,-0.55 57.65,5.62c22.05,7.3 42.6,20.75 59.55,41.27c16.32,-18.52 35.37,-31.35 55.62,-39.02c20.51,-7.75 42.13,-10.16 63.28,-7.81c20.91,2.32 41.45,9.34 60.05,20.44z" fill-rule="nonzero" id="svg_1"/>
  <path d="m47,73.78l92,-46.78l84,26c0,0 32,34.78 32,35.78c0,1 49,-48 48,-48.78c-1,-0.78 83,-10.22 82,-11c-1,-0.78 72,42.78 71,42c-1,-0.78 25,70.78 26,70.78c1,0 -4,82 -4,83c0,1 -88,94 -89,93.22c-1,-0.78 -134,113.78 -135,113c-1,-0.78 -146,-116.22 -146,-117.22c0,-1 -90,-140 -91,-140.78c-1,-0.78 30,-99.22 30,-99.22z" id="svg_2"/>
 </g>
</svg>