<?xml version="1.0"?>
<svg width="459" height="511.87" xmlns="http://www.w3.org/2000/svg" xmlns:svg="http://www.w3.org/2000/svg" clip-rule="evenodd" fill-rule="evenodd">
 <g class="layer">
  <title>Layer 1</title>
  <path d="m32.26,0l394.48,0c8.9,0 16.97,3.63 22.8,9.46c5.83,5.83 9.46,13.93 9.46,22.8l0,455.92c0,13.08 -10.61,23.69 -23.69,23.69c-7.02,0 -13.34,-3.07 -17.68,-7.93l-187.51,-173.52l-190.43,175.16c-9.6,8.83 -24.56,8.21 -33.4,-1.39a23.51,23.51 0 0 1 -6.23,-16l-0.06,-455.93c0,-8.8 3.63,-16.87 9.46,-22.71l0.09,-0.09c5.86,-5.84 13.92,-9.46 22.71,-9.46zm379.37,47.37l-364.26,0l0,386.91l166.75,-153.36c8.99,-8.2 22.93,-8.32 32.01,0.09l165.5,153.15l0,-386.79z" fill-rule="nonzero" id="svg_1"/>
  <path d="m45.5,44.46c0,16 -8,39 -6,169c2,130 0,205 -0.5,204.54c-0.5,-0.46 7.5,29.46 7,29c-0.5,-0.46 181.5,-164.54 181,-165c-0.5,-0.46 190.5,166.46 190.5,166.46c0,0 4,-416 3.5,-416.46c-0.5,-0.46 -375.5,12.46 -375.5,12.46z" fill="#000000" id="svg_2" stroke="#000000" transform="matrix(1 0 0 1 0 0)"/>
 </g>
</svg>